<svg xmlns="http://www.w3.org/2000/svg" fill="none" viewBox="0 0 348 348">
<rect    stroke="#000" stroke-width="3" x="5" y="5" width="337" height="337"/>
<ellipse stroke="#000" stroke-width="3" cx="300" cy="40"  rx="16" ry="16"/>

<rect    stroke="#000" stroke-width="3" x="20" y="20" width="145" height="305"/>
<rect    stroke="#000" stroke-width="3" x="180" y="96" width="145" height="229"/>

<rect    stroke="#000" stroke-width="3" fill="black" x="35" y="35" width="20" height="57.5"/>
<rect    stroke="#000" stroke-width="3" x="55" y="54" width="95" height="20"/>
<rect    stroke="#000" stroke-width="3" fill="black" x="35" y="107.5" width="20" height="57.5"/>
<rect    stroke="#000" stroke-width="3" x="55" y="126" width="95" height="20"/>
<rect    stroke="#000" stroke-width="3" fill="black" x="35" y="180" width="20" height="57.5"/>
<rect    stroke="#000" stroke-width="3" x="55" y="199" width="95" height="20"/>
<rect    stroke="#000" stroke-width="3" fill="black" x="35" y="252.5" width="20" height="57.5"/>
<rect    stroke="#000" stroke-width="3" x="55" y="271" width="95" height="20"/>

<rect    stroke="#000" stroke-width="3" x="195" y="107.5" width="20" height="57.5"/>
<rect    stroke="#000" stroke-width="3" x="215" y="126" width="95" height="20"/>
<rect    stroke="#000" stroke-width="3" x="195" y="180" width="20" height="57.5"/>
<rect    stroke="#000" stroke-width="3" x="215" y="199" width="95" height="20"/>
<rect    stroke="#000" stroke-width="3" x="195" y="252.5" width="20" height="57.5"/>
<rect    stroke="#000" stroke-width="3" x="215" y="271" width="95" height="20"/>

</svg>