<svg xmlns="http://www.w3.org/2000/svg" xml:space="preserve" fill="none" stroke="#000" stroke-width="2" viewBox="0 0 347 347"><path d="M5 5h337v337H5z"/><circle cx="298" cy="40" r="16"/><rect width="91.1" height="55.1" x="23.8" y="45" stroke-width="1.8" ry="1.2"/><rect width="91.1" height="55.1" x="129.4" y="44.4" stroke-width="1.8" ry="1.2"/><rect width="91.1" height="55.1" x="23.5" y="118.8" stroke-width="1.8" ry="1.2"/><rect width="91.1" height="55.1" x="129.1" y="118.3" stroke-width="1.8" ry="1.2"/><rect width="91.1" height="55.1" x="23.5" y="195.4" stroke-width="1.8" ry="1.2"/><rect width="91.1" height="55.1" x="129.1" y="194.9" stroke-width="1.8" ry="1.2"/><rect width="91.1" height="55.1" x="235.3" y="118.3" stroke-width="1.8" ry="1.2"/><rect width="91.1" height="55.1" x="235.3" y="194.9" stroke-width="1.8" ry="1.2"/><rect width="221.8" height="54.8" x="23.4" y="268.3" stroke-width="1.8" ry="1.2"/><path fill="#000" d="M254.3 308.8c-3.4 0-6.2 1-8.3 2.8-2.1 1.9-3.4 4.5-3.8 8l4.7.6a9.7 9.7 0 0 1 2.6-5.8c1.3-1.2 3-1.8 4.9-1.8 2 0 3.7.7 5.1 2 1.4 1.4 2.1 3 2.1 4.7 0 1-.2 2-.7 2.8-.5.8-1.5 2-3.1 3.3a34.1 34.1 0 0 0-3.3 3.2 10.6 10.6 0 0 0-2.6 7.7v1.4h4.5c0-1.9.1-3.2.4-4 .2-.8.5-1.5 1-2.2.4-.6 1.4-1.6 3-3 2.1-1.9 3.6-3.6 4.4-5a9.4 9.4 0 0 0-2.1-11.7c-2.2-2-5.1-3-8.8-3zm-2.6 32.9v5.2h5.2v-5.2h-5.2z" style="line-height:1.25;-inkscape-font-specification:Arial" transform="scale(1.105 .905)"/><path fill="#000" d="M57.9 271v30.2h8V299h-5.3v-25.8h5.3V271zm151.5 0v2.2h5.4V299h-5.4v2.2h8V271zm-92.2 2.6a10 10 0 0 0-6.2 1.8 5.7 5.7 0 0 0-2.4 4.8c0 1.6.5 3 1.4 4 1 1.1 2.6 1.8 4.6 2.3a55 55 0 0 0 5.4 1 5 5 0 0 1 2.3 1.1c.5.5.7 1.3.7 2.3 0 1.2-.5 2.1-1.6 2.8-1 .7-2.5 1.1-4.4 1.1-1.3 0-2.8-.3-4.3-.8s-2.9-1.3-4-2.2h-.3v3.8c1.4.6 2.8 1 4 1.4 1.4.3 2.9.4 4.6.4 1.5 0 2.8-.1 4-.5 1-.4 2-.9 2.8-1.6.8-.6 1.4-1.3 1.8-2.2a6 6 0 0 0 .6-2.6c0-1.7-.4-3-1.3-3.9a8 8 0 0 0-3.9-2 39 39 0 0 0-5.9-1.2 5 5 0 0 1-2.6-1.3c-.5-.5-.7-1.3-.7-2.2 0-1.1.5-2 1.5-2.7a7 7 0 0 1 4-1 13.2 13.2 0 0 1 7.8 2.6h.2v-3.6a20.4 20.4 0 0 0-8-1.6zm-45.5.4v23h5.8c2.1 0 3.8-.1 5.1-.4a10.2 10.2 0 0 0 7.2-5.4c.9-1.7 1.4-3.6 1.4-5.7a12 12 0 0 0-1.4-5.8 10.3 10.3 0 0 0-7-5.2 23 23 0 0 0-5.4-.5zm23.4 0v2.3h3v18.4h-3v2.3h9.1v-2.3h-3v-18.4h3V274zm36 0v23h3v-8.6h3.2c1.6 0 3-.2 4-.5 1.1-.5 2-1 2.9-1.8.6-.7 1.1-1.4 1.5-2.3.3-.9.5-1.8.5-2.9 0-1.3-.2-2.4-.7-3.3a6.2 6.2 0 0 0-2-2.2c-.8-.5-1.6-.8-2.6-1-1-.3-2.1-.4-3.5-.4zm19.1 0v23h14.6v-2.7h-11.5V274zm23.4 0-8.4 23h3.1l2.3-6.4h10l2.2 6.4h3.3l-8.4-23zm11.7 0 8.2 13.2v9.8h3v-10l8.1-13h-3.2l-6.4 10.3-6.3-10.3zm-110.5 2.6h2.8c1.5 0 2.7.1 3.7.3 1 .2 2 .6 2.9 1a7 7 0 0 1 2.8 3 10 10 0 0 1 1 4.6c0 1.8-.3 3.3-1 4.5a6.9 6.9 0 0 1-2.5 2.9c-.9.6-2 1-3 1.2-1.1.2-2.4.3-3.9.3h-2.8zm59.4 0h3c1 0 1.8 0 2.4.2a5 5 0 0 1 1.7.7c.6.4 1 .9 1.3 1.5.3.5.4 1.2.4 2 0 .7 0 1.3-.3 1.9a4.3 4.3 0 0 1-2.9 2.6c-.8.2-1.8.3-3 .3h-2.6zm41.4 0 4 11.4h-8.1z" style="line-height:1.25" transform="scale(.966 1.036)"/></svg>