# Blender 4.0.2
# www.blender.org
mtllib border maybe.mtl
o Plane
v -8.939476 2.854302 2.971931
v -8.939476 2.854302 -7.724883
v 3.535978 2.854302 -7.724883
v 3.535978 2.854302 -4.817858
v 8.810487 2.854302 2.971931
v 8.810485 2.854302 -4.817858
v -8.120077 2.854302 2.321904
v -8.120077 2.854302 -7.098484
v 2.993379 2.854302 -7.098484
v 2.993379 2.854302 -4.331321
v 8.014121 2.854302 -4.331321
v -8.654436 3.948961 2.758918
v -8.654434 3.948961 -7.523055
v 3.369789 3.948961 -7.523055
v 3.369789 3.948961 -4.675510
v 8.536378 3.948961 2.758918
v 8.536378 3.948961 -4.675510
v -8.404448 3.948961 2.530506
v -8.404448 3.948961 -7.297629
v 3.155038 3.948961 -7.297629
v 3.155038 3.948961 -4.467901
v 8.289300 3.948961 -4.467901
v 8.014121 2.854302 2.321904
v 8.289300 3.948961 2.530506
vn -0.9698 0.2438 -0.0000
vn -0.0000 -1.0000 -0.0000
vn -0.0000 0.1790 0.9839
vn 0.9679 0.2514 -0.0000
vn -0.0000 0.1238 0.9923
vn -0.9893 0.1461 -0.0000
vn -0.0000 1.0000 -0.0000
vn -0.9677 0.2520 -0.0000
vn -0.0000 0.1910 0.9816
vn 0.9700 0.2429 -0.0000
vn -0.0000 0.1290 -0.9917
vn 0.9887 0.1501 -0.0000
vn -0.0000 0.1813 -0.9834
vn -0.0000 0.1872 -0.9823
vt 0.996106 0.002457
vt 0.966257 0.026464
vt 0.966732 0.384570
vt 0.994301 0.412215
vt 0.489479 0.210143
vt 0.995759 0.412352
vt 0.966228 0.384184
vt 0.032452 0.384490
vt 0.002171 0.411389
vt 0.030861 0.029849
vt 0.002200 0.001468
vt 0.032687 0.383805
vt 0.003637 0.410628
vt 0.031032 0.030259
vt 0.966734 0.025527
vt 0.898027 0.076936
vt 0.097208 0.077566
vt 0.002269 0.000588
vt 0.031953 0.030156
vt 0.032534 0.384268
vt 0.003238 0.411005
vt 0.001378 0.001527
vt 0.999497 -0.000140
vt 0.966166 0.027711
vt 0.032065 0.031059
vt 0.966978 0.027358
vt 0.967004 0.384892
vt 0.901177 0.334000
vt 0.781819 0.385252
vt 0.779299 0.336033
vt 0.032453 0.384581
vt 0.101460 0.337017
vt 0.999942 0.000081
vt 0.995787 0.412743
vt 0.966837 0.385011
vt 0.965747 0.026979
vt 0.995815 0.411654
vt 0.000258 0.412745
vt 0.032431 0.384017
vt 0.966215 0.383974
vt 0.995951 0.002329
vt 0.995469 0.412430
vt 0.965938 0.383788
vt 0.965988 0.026624
vt 0.994693 0.411738
vt 0.001011 0.412317
vt 0.033264 0.384632
vt 0.966138 0.383992
s 1
usemtl Material.001
f 23/1/1 24/2/1 22/3/1 11/4/1
f 5/5/2 1/5/2 7/5/2 23/5/2
f 9/6/3 20/7/3 19/8/3 8/9/3
f 18/10/4 7/11/4 8/9/4 19/8/4
f 11/4/5 22/3/5 21/12/5 10/13/5
f 10/6/6 21/7/6 20/12/6 9/13/6
f 1/5/2 2/5/2 8/5/2 7/5/2
f 12/14/7 16/15/7 24/16/7 18/17/7
f 6/5/2 5/5/2 23/5/2 11/5/2
f 4/5/2 6/5/2 11/5/2 10/5/2
f 3/5/2 4/5/2 10/5/2 9/5/2
f 2/5/2 3/5/2 9/5/2 8/5/2
f 1/18/8 12/19/8 13/20/8 2/21/8
f 1/22/9 5/23/9 16/24/9 12/25/9
f 16/26/7 17/27/7 22/28/7 24/16/7
f 17/27/7 15/29/7 21/30/7 22/28/7
f 15/29/7 14/29/7 20/30/7 21/30/7
f 14/29/7 13/31/7 19/32/7 20/30/7
f 5/33/10 6/34/10 17/35/10 16/36/10
f 6/37/11 4/38/11 15/39/11 17/40/11
f 4/41/12 3/42/12 14/43/12 15/44/12
f 3/45/13 2/46/13 13/47/13 14/48/13
f 18/10/14 24/2/14 23/1/14 7/11/14
f 13/31/7 12/14/7 18/17/7 19/32/7
