# Blender 4.0.2
# www.blender.org
o Plane
v -8.939476 2.854302 2.971931
v 3.736051 2.854302 2.971931
v -8.939476 2.854302 -7.724883
v 3.535978 2.854302 -7.724883
v -8.939476 2.854302 -5.017930
v 3.535978 2.854302 -4.817858
v 8.810487 2.854302 2.971931
v 8.810485 2.854302 -4.817858
v -8.120077 2.854302 2.321904
v 3.564717 2.854302 2.321904
v -8.120077 2.854302 -7.098484
v 2.993379 2.854302 -7.098484
v -8.120077 2.854302 -4.902659
v 2.993379 2.854302 -4.331321
v 8.014121 2.854302 2.321904
v 8.014121 2.854302 -4.331321
v -8.654436 3.948961 2.758918
v 3.663756 3.948961 2.758918
v -8.654434 3.948961 -7.523055
v 3.369789 3.948961 -7.523055
v -8.654434 3.948961 -4.969478
v 3.369789 3.948961 -4.675510
v 8.536378 3.948961 2.758918
v 8.536378 3.948961 -4.675510
v -8.404448 3.948961 2.530506
v 3.641918 3.948961 2.530506
v -8.404448 3.948961 -7.297629
v 3.155038 3.948961 -7.297629
v -8.404448 3.948961 -4.954781
v 3.155038 3.948961 -4.467901
v 8.289300 3.948961 2.530506
v 8.289300 3.948961 -4.467901
vn -0.3657 -0.8483 -0.3829
vn -0.2395 0.9427 -0.2322
vn -0.2524 0.9384 0.2361
vn -0.3455 -0.8583 0.3794
vn 0.3657 -0.8472 -0.3855
vn 0.2388 0.9433 -0.2306
vn -0.0000 0.7705 -0.6375
vn -0.0000 -0.6375 -0.7705
vn -0.3603 -0.8641 0.3514
vn -0.2490 0.9347 0.2537
vn 0.2404 0.9428 0.2311
vn 0.3630 -0.8485 0.3851
vn -0.6116 0.7912 -0.0000
vn -0.4979 0.6915 0.5234
vn 0.6118 0.7910 -0.0000
vn -0.5343 0.6477 0.5432
vn -0.6135 -0.5066 0.6058
vn 0.7910 -0.6118 -0.0000
vn -0.0000 -0.6360 0.7717
vn -0.6377 -0.4614 0.6168
vn 0.6352 -0.4639 0.6175
vn 0.6401 -0.4787 -0.6010
vn 0.3452 -0.8706 -0.3506
vn 0.6108 -0.4905 -0.6216
vn -0.6384 -0.4638 -0.6143
vn -0.7912 -0.6116 -0.0000
vn -0.0000 0.7717 0.6360
vn 0.5013 0.6893 0.5230
vn 0.4994 0.6727 -0.5460
vn 0.2598 0.9309 -0.2567
vn 0.5354 0.6634 -0.5228
vn -0.4976 0.6889 -0.5271
vt 0.015591 0.676014
vt 0.869335 -0.000000
vt 0.416788 0.683810
vt 0.287928 0.676014
vt 0.015591 0.015591
vt 0.956445 0.416788
vt 0.869335 0.186026
vt 0.015591 0.493886
vt 0.401197 0.470499
vt 0.547453 0.683810
vt 0.912890 0.486091
vt 0.401197 0.015591
vt 0.956445 0.105473
vt 0.956445 0.412890
vt 0.956445 0.716410
vt 0.460343 0.687707
vt 0.287928 0.470499
vt 0.311315 0.015591
vt 0.000000 0.493886
vt 0.000000 0.000000
vt 0.000000 0.691605
vt 0.303519 0.691605
vt 0.303519 0.486091
vt 0.416788 0.486091
vt 0.416788 -0.000000
vt 0.311315 0.000000
vt 0.825781 0.493886
vt 0.825781 0.687707
vt 0.912890 0.672116
vt 0.503898 0.893222
vt 0.591008 0.797078
vt 0.912890 0.482193
s 1
f 15/1/1 31/2/2 32/3/3 16/4/4
f 9/5/5 25/6/6 26/7/7 10/8/8
f 12/9/9 28/10/10 27/11/11 11/12/12
f 21/13/13 17/14/14 25/6/6 29/15/15
f 16/4/4 32/3/3 30/16/16 14/17/17
f 14/17/17 30/16/16 28/10/10 12/9/9
f 11/12/12 27/11/11 29/15/15 13/18/18
f 13/18/18 29/15/15 25/6/6 9/5/5
f 10/8/8 26/7/7 31/2/2 15/1/1
f 2/19/19 1/20/20 9/5/5 10/8/8
f 7/21/21 2/19/19 10/8/8 15/1/1
f 8/22/22 7/21/21 15/1/1 16/4/4
f 6/23/23 8/22/22 16/4/4 14/17/17
f 4/24/24 6/23/23 14/17/17 12/9/9
f 3/25/25 4/24/24 12/9/9 11/12/12
f 5/26/26 3/25/25 11/12/12 13/18/18
f 1/20/20 5/26/26 13/18/18 9/5/5
f 17/14/14 18/27/27 26/7/7 25/6/6
f 18/27/27 23/28/28 31/2/2 26/7/7
f 23/28/28 24/29/29 32/3/3 31/2/2
f 24/29/29 22/30/30 30/16/16 32/3/3
f 22/30/30 20/31/31 28/10/10 30/16/16
f 20/31/31 19/32/32 27/11/11 28/10/10
f 19/32/32 21/13/13 29/15/15 27/11/11
f 1/20/20 2/19/19 18/27/27 17/14/14
f 2/19/19 7/21/21 23/28/28 18/27/27
f 7/21/21 8/22/22 24/29/29 23/28/28
f 8/22/22 6/23/23 22/30/30 24/29/29
f 6/23/23 4/24/24 20/31/31 22/30/30
f 4/24/24 3/25/25 19/32/32 20/31/31
f 3/25/25 5/26/26 21/13/13 19/32/32
f 5/26/26 1/20/20 17/14/14 21/13/13
