# Made in Blockbench 4.10.3
mtllib Case.mtl

o Case
v 1.8599999999999999 0.03125000000000003 1.08
v 1.8599999999999999 0.03125000000000003 -1.08
v -1.8599999999999999 0.03125000000000003 1.08
v -1.8599999999999999 0.03125000000000003 -1.08
v -1.9375 -0.031249999999999972 1.08
v -1.9375 -0.031249999999999972 1.08
v -1.9375 -0.031249999999999972 -1.08
v -1.9375 -0.031249999999999972 -1.08
v 1.9375 -0.031249999999999972 1.08
v 1.9375 -0.031249999999999972 1.08
v 1.9375 -0.031249999999999972 -1.08
v 1.9375 -0.031249999999999972 -1.08
v 1.8599999999999999 -0.031249999999999972 -1.125
v 1.8599999999999999 -0.031249999999999972 -1.125
v -1.8599999999999999 -0.031249999999999972 -1.125
v -1.8599999999999999 -0.031249999999999972 -1.125
v 1.8599999999999999 -0.031249999999999972 1.125
v 1.8599999999999999 -0.031249999999999972 1.125
v -1.8599999999999999 -0.031249999999999972 1.125
v -1.8599999999999999 -0.031249999999999972 1.125
vt 0 -2
vt 0 -2
vt 0 1
vt 0 1
vt 0 -2
vt 0 -2
vt 0 1
vt 0 1
vt 3 -2
vt 3 1
vt 0 1
vt 0 -2
vt 3 1
vt 3 1
vt 0 1
vt 0 1
vt 3 1
vt 3 1
vt 0 1
vt 0 1
vt 3 0.9999999999999978
vt 0 0.9999999999999978
vt 0 0.9116062499999977
vt 3 0.9116062499999977
vt 3 0.9116062499999977
vt 3 0.9999999999999978
vt 0 0.9999999999999978
vt 0 0.9116062499999977
vt 3 0.9116062499999977
vt 3 0.9999999999999978
vt 0 0.9999999999999978
vt 0 0.9116062499999977
vt 3 0.9999999999999978
vt 0 0.9999999999999978
vt 0 0.9116062499999977
vt 3 0.9116062499999977
vt 0 1
vt 0 1
vt 0.0625 0.9375
vt 0.0625 0.9375
vt 0 0.9375
vt 0 0.9375
vt 0.0625 1
vt 0.0625 1
vt 0.0625 1
vt 0.0625 1
vt 0 0.9375
vt 0 0.9375
vt 0.0625 0.9375
vt 0.0625 0.9375
vt 0 1
vt 0 1
vt 0.044193750000000004 1
vt 0 0.9234500000000001
vt 0.08838750000000001 0.9234500000000001
vt 0.044193750000000004 1
vt 0 0.9234500000000001
vt 0.08838750000000001 0.9234500000000001
vt 0.044193750000000004 1
vt 0 0.9234500000000001
vt 0.08838750000000001 0.9234500000000001
vt 0.044193750000000004 1
vt 0 0.9234500000000001
vt 0.08838750000000001 0.9234500000000001
vn 0 0 0
vn 0 0 0
vn 0 1 0
vn 0 0 0
vn 0 0 0
vn 0.6277524511897812 0.7784130394753298 0
vn -0.6277524511897812 0.7784130394753298 0
vn 0 0.5843047258450753 0.8115343414514948
vn 0 0.5843047258450753 -0.8115343414514948
vn 0 0 0
vn 0 0 0
vn 0 0 0
vn 0 0 0
vn 0.4262600392509343 0.5285624486711593 0.7341145120432779
vn -0.4262600392509343 0.5285624486711593 0.7341145120432779
vn 0.4262600392509343 0.5285624486711593 -0.7341145120432779
vn -0.4262600392509343 0.5285624486711593 -0.7341145120432779
usemtl none
f 10/1/1 9/2/1 12/3/1 11/4/1
f 5/5/2 6/6/2 8/7/2 7/8/2
f 1/9/3 2/10/3 4/11/3 3/12/3
f 17/13/4 18/14/4 20/15/4 19/16/4
f 14/17/5 13/18/5 16/19/5 15/20/5
f 2/21/6 1/22/6 10/23/6 12/24/6
f 6/25/7 3/26/7 4/27/7 8/28/7
f 18/29/8 1/30/8 3/31/8 20/32/8
f 4/33/9 2/34/9 14/35/9 16/36/9
f 13/37/10 14/38/10 11/39/10 12/40/10
f 18/41/11 17/42/11 9/43/11 10/44/11
f 16/45/12 15/46/12 7/47/12 8/48/12
f 19/49/13 20/50/13 5/51/13 6/52/13
f 1/53/14 18/54/14 10/55/14
f 3/56/15 6/57/15 20/58/15
f 2/59/16 12/60/16 14/61/16
f 4/62/17 16/63/17 8/64/17