# Made in Blockbench 4.10.3
mtllib Lock.mtl

o Lock
v 0 0 0
v 0 0.0625 0
v 0.03566304287346093 0 0.15625000000000003
v 0.03566304287346093 0.0625 0.15625000000000003
v 0.09992562560077597 0 0.12530277121950598
v 0.09992562560077597 0.0625 0.12530277121950598
v 0.14439671267048335 0 0.06953779186134826
v 0.14439671267048335 0.0625 0.06953779186134826
v 0.16026825988633656 0 9.813600573735911e-18
v 0.16026825988633656 0.0625 9.813600573735911e-18
v 0.14439671267048335 0 -0.06953779186134824
v 0.14439671267048335 0.0625 -0.06953779186134824
v 0.09992562560077599 0 -0.12530277121950598
v 0.09992562560077599 0.0625 -0.12530277121950598
v 0.03566304287346095 0 -0.15625000000000003
v 0.03566304287346095 0.0625 -0.15625000000000003
v -0.035663042873460914 0 -0.15625000000000003
v -0.035663042873460914 0.0625 -0.15625000000000003
v -0.0999256256007759 0 -0.12530277121950603
v -0.0999256256007759 0.0625 -0.12530277121950603
v -0.14439671267048332 0 -0.06953779186134827
v -0.14439671267048332 0.0625 -0.06953779186134827
v -0.16026825988633656 0 -2.944080172120773e-17
v -0.16026825988633656 0.0625 -2.944080172120773e-17
v -0.14439671267048335 0 0.06953779186134823
v -0.14439671267048335 0.0625 0.06953779186134823
v -0.09992562560077602 0 0.12530277121950595
v -0.09992562560077602 0.0625 0.12530277121950595
v -0.03566304287346097 0 0.15625
v -0.03566304287346097 0.0625 0.15625
vt 0.16026570320876515 0.9304606676483825
vt 0.14439583672094328 1
vt 0 0.9304606676483826
vt 0 0.9375
vt 0.071325 0.9375
vt 0.071325 1
vt 0 1
vt 4.163336342344337e-17 0.839731860913499
vt 0.06953827543966729 0.8556063579174036
vt 0 1
vt 0.1602654639818339 0.930465354726935
vt 0.1443953902718124 1
vt 0 0.930465354726935
vt 0 0.9375
vt 0.071325 0.9375
vt 0.071325 1
vt 0 1
vt 0 0.8397342967912349
vt 0.0695345414794306 0.8556048252656695
vt 1.3877787807814457e-17 1
vt 0.16026875 0.9304625
vt 0.14439375 1
vt 0 0.9304625
vt 0 0.9375
vt 0.071325 0.9375
vt 0.071325 1
vt 0 1
vt 0.14439375 0.9304625
vt 0.16026875 1
vt 0 1
vt 0.14439375 0.9304625
vt 0.16026875 1
vt 0 1
vt 0 0.9375
vt 0.071325 0.9375
vt 0.071325 1
vt 0 1
vt 0.16026875 0.9304625
vt 0.14439375 1
vt 0 0.9304625
vt 0 0.8397342967912349
vt 0.0695345414794306 0.8556048252656695
vt 1.3877787807814457e-17 1
vt 0 0.9375
vt 0.071325 0.9375
vt 0.071325 1
vt 0 1
vt 0.1602654639818339 0.930465354726935
vt 0.1443953902718124 1
vt 0 0.930465354726935
vt 4.163336342344337e-17 0.839731860913499
vt 0.06953827543966729 0.8556063579174036
vt 0 1
vt 0 0.9375
vt 0.071325 0.9375
vt 0.071325 1
vt 0 1
vt 0.16026570320876515 0.9304606676483825
vt 0.14439583672094328 1
vt 0 0.9304606676483826
vt 0 0.84375
vt 0.071325 0.84375
vt 0.0356625 1
vt 0 0.9375
vt 0.071325 0.9375
vt 0.071325 1
vt 0 1
vt 0.071325 1
vt 0 1
vt 0.0356625 0.84375
vt 0 1
vt 0.01586986648782196 0.9304606676483825
vt 0.16026570320876515 1
vt 0 0.9375
vt 0.071325 0.9375
vt 0.071325 1
vt 0 1
vt 0.06953827543966726 1
vt 0 0.9841255029960956
vt 0.06953827543966722 0.8397318609134992
vt 0 1
vt 0.0158700737100215 0.930465354726935
vt 0.1602654639818339 1
vt 0 0.9375
vt 0.071325 0.9375
vt 0.071325 1
vt 0 1
vt 0.06953454147943061 1
vt 0 0.9841294715255653
vt 0.06953454147943068 0.8397342967912349
vt 0 1
vt 0.015875 0.9304625
vt 0.16026875 1
vt 0 0.9375
vt 0.071325 0.9375
vt 0.071325 1
vt 0 1
vt 0.015875 1
vt 0 0.9304625
vt 0.16026875 0.9304625
vt 0.015875 1
vt 0 0.9304625
vt 0.16026875 0.9304625
vt 0 0.9375
vt 0.071325 0.9375
vt 0.071325 1
vt 0 1
vt 0 1
vt 0.015875 0.9304625
vt 0.16026875 1
vt 0.06953454147943061 1
vt 0 0.9841294715255653
vt 0.06953454147943068 0.8397342967912349
vt 0 0.9375
vt 0.071325 0.9375
vt 0.071325 1
vt 0 1
vt 0 1
vt 0.0158700737100215 0.930465354726935
vt 0.1602654639818339 1
vt 0.06953827543966726 1
vt 0 0.9841255029960956
vt 0.06953827543966722 0.8397318609134992
vt 0 0.9375
vt 0.071325 0.9375
vt 0.071325 1
vt 0 1
vt 0 1
vt 0.01586986648782196 0.9304606676483825
vt 0.16026570320876515 1
vt 0.071325 1
vt 0 1
vt 0.0356625 0.84375
vt 0 0.9375
vt 0.071325 0.9375
vt 0.071325 1
vt 0 1
vt 0 0.84375
vt 0.071325 0.84375
vt 0.0356625 1
vn 0 -1 0
vn 0.43388373911755856 0 0.9009688679024191
vn 0 1 0
vn 0 -1 0
vn 0.7818314824680296 0 0.6234898018587338
vn 0 1 0
vn 0 -1 0
vn 0.9749279121818237 0 0.22252093395631437
vn 0 1 0
vn 0 -1 0
vn 0.9749279121818237 0 -0.22252093395631434
vn 0 1 0
vn 0 -1 0
vn 0.7818314824680298 0 -0.6234898018587336
vn 0 1 0
vn 0 -1 0
vn 0.4338837391175586 0 -0.9009688679024191
vn 0 1 0
vn 0 -1 0
vn 0 0 -1
vn 0 1 0
vn 0 -1 0
vn -0.4338837391175582 0 -0.9009688679024191
vn 0 1 0
vn 0 -1 0
vn -0.7818314824680296 0 -0.6234898018587339
vn 0 1 0
vn 0 -1 0
vn -0.9749279121818235 0 -0.2225209339563147
vn 0 1 0
vn 0 -1 0
vn -0.9749279121818237 0 0.22252093395631434
vn 0 1 0
vn 0 -1 0
vn -0.7818314824680299 0 0.6234898018587335
vn 0 1 0
vn 0 -1 0
vn -0.43388373911755856 0 0.9009688679024191
vn 0 1 0
vn 0 -1 0
vn -3.891363913352937e-16 0 1
vn 0 1 0
usemtl none
f 5/1/1 3/2/1 1/3/1
f 3/4/2 5/5/2 6/6/2 4/7/2
f 4/8/3 6/9/3 2/10/3
f 7/11/4 5/12/4 1/13/4
f 5/14/5 7/15/5 8/16/5 6/17/5
f 6/18/6 8/19/6 2/20/6
f 9/21/7 7/22/7 1/23/7
f 7/24/8 9/25/8 10/26/8 8/27/8
f 8/28/9 10/29/9 2/30/9
f 11/31/10 9/32/10 1/33/10
f 9/34/11 11/35/11 12/36/11 10/37/11
f 10/38/12 12/39/12 2/40/12
f 13/41/13 11/42/13 1/43/13
f 11/44/14 13/45/14 14/46/14 12/47/14
f 12/48/15 14/49/15 2/50/15
f 15/51/16 13/52/16 1/53/16
f 13/54/17 15/55/17 16/56/17 14/57/17
f 14/58/18 16/59/18 2/60/18
f 17/61/19 15/62/19 1/63/19
f 15/64/20 17/65/20 18/66/20 16/67/20
f 16/68/21 18/69/21 2/70/21
f 19/71/22 17/72/22 1/73/22
f 17/74/23 19/75/23 20/76/23 18/77/23
f 18/78/24 20/79/24 2/80/24
f 21/81/25 19/82/25 1/83/25
f 19/84/26 21/85/26 22/86/26 20/87/26
f 20/88/27 22/89/27 2/90/27
f 23/91/28 21/92/28 1/93/28
f 21/94/29 23/95/29 24/96/29 22/97/29
f 22/98/30 24/99/30 2/100/30
f 25/101/31 23/102/31 1/103/31
f 23/104/32 25/105/32 26/106/32 24/107/32
f 24/108/33 26/109/33 2/110/33
f 27/111/34 25/112/34 1/113/34
f 25/114/35 27/115/35 28/116/35 26/117/35
f 26/118/36 28/119/36 2/120/36
f 29/121/37 27/122/37 1/123/37
f 27/124/38 29/125/38 30/126/38 28/127/38
f 28/128/39 30/129/39 2/130/39
f 3/131/40 29/132/40 1/133/40
f 29/134/41 3/135/41 4/136/41 30/137/41
f 30/138/42 4/139/42 2/140/42